<?xml version="1.0" encoding="UTF-8" standalone="no"?>
<!-- Created with Inkscape (http://www.inkscape.org/) -->

<svg
   version="1.1"
   id="svg8883"
   width="784"
   height="784"
   viewBox="0 0 784 784"
   sodipodi:docname="tiger-stencil-vector-art-publicdomain.svg"
   inkscape:version="1.2 (dc2aedaf03, 2022-05-15)"
   xmlns:inkscape="http://www.inkscape.org/namespaces/inkscape"
   xmlns:sodipodi="http://sodipodi.sourceforge.net/DTD/sodipodi-0.dtd"
   xmlns="http://www.w3.org/2000/svg"
   xmlns:svg="http://www.w3.org/2000/svg">
  <defs
     id="defs8887">
    <clipPath
       clipPathUnits="userSpaceOnUse"
       id="clipPath8899">
      <path
         d="m 534.756,54.965 0.138,0.002 -0.008,0.33 c -0.042,-0.113 -0.088,-0.221 -0.13,-0.332"
         id="path8897" />
    </clipPath>
    <clipPath
       clipPathUnits="userSpaceOnUse"
       id="clipPath8907">
      <path
         d="m 535.084,55.65 h 0.416 v -0.416 h -0.416 z"
         id="path8905" />
    </clipPath>
    <clipPath
       clipPathUnits="userSpaceOnUse"
       id="clipPath8917">
      <path
         d="m 535.0845,55.649616 h 0.13908 v -0.332039 h -0.13908 z"
         id="path8915" />
    </clipPath>
    <linearGradient
       x1="0"
       y1="0"
       x2="1"
       y2="0"
       gradientUnits="userSpaceOnUse"
       gradientTransform="matrix(0.1388,0,0,-0.1388,535.08407,55.483474)"
       spreadMethod="pad"
       id="linearGradient8923">
      <stop
         style="stop-opacity:1;stop-color:#ffffff"
         offset="0"
         id="stop8919" />
      <stop
         style="stop-opacity:1;stop-color:#231f20"
         offset="1"
         id="stop8921" />
    </linearGradient>
    <clipPath
       clipPathUnits="userSpaceOnUse"
       id="clipPath8933">
      <path
         d="M 0,588 H 588 V 0 H 0 Z"
         id="path8931" />
    </clipPath>
  </defs>
  <sodipodi:namedview
     id="namedview8885"
     pagecolor="#ffffff"
     bordercolor="#000000"
     borderopacity="0.25"
     inkscape:showpageshadow="2"
     inkscape:pageopacity="0.0"
     inkscape:pagecheckerboard="0"
     inkscape:deskcolor="#d1d1d1"
     showgrid="false"
     inkscape:zoom="1.067602"
     inkscape:cx="392.93668"
     inkscape:cy="392.46834"
     inkscape:window-width="1920"
     inkscape:window-height="1017"
     inkscape:window-x="-8"
     inkscape:window-y="-8"
     inkscape:window-maximized="1"
     inkscape:current-layer="g8891">
    <inkscape:page
       x="0"
       y="0"
       id="page8889"
       width="784"
       height="784" />
  </sodipodi:namedview>
  <g
     id="g8891"
     inkscape:groupmode="layer"
     inkscape:label="Page 1"
     transform="matrix(1.3333333,0,0,-1.3333333,0,784)">
    <g
       id="g8893">
      <g
         id="g8895"
         clip-path="url(#clipPath8899)">
        <g
           id="g8901">
          <g
             id="g8903"
             clip-path="url(#clipPath8907)">
            <g
               id="g8909">
              <g
                 id="g8911">
                <g
                   id="g8913"
                   clip-path="url(#clipPath8917)">
                  <path
                     d="m 535.084,55.65 h 0.416 v -0.416 h -0.416 z"
                     style="fill:url(#linearGradient8923);stroke:none"
                     id="path8925" />
                </g>
              </g>
            </g>
          </g>
        </g>
      </g>
    </g>
    <g
       id="g8927">
      <g
         id="g8929"
         clip-path="url(#clipPath8933)">
        <g
           id="g8935"
           transform="translate(225.9204,439.2134)">
          <path
             d="m 0,0 c 0.932,-1.6 1.552,-4.39 1.552,-7.571 0,-3.182 -0.62,-5.972 -1.552,-7.573 3.426,0.82 5.976,3.895 5.976,7.573 C 5.976,-3.894 3.426,-0.819 0,0"
             style="fill:#fcee21;fill-opacity:1;fill-rule:nonzero;stroke:none"
             id="path8937" />
        </g>
        <g
           id="g8939"
           transform="translate(222.2876,439.2134)">
          <path
             d="m 0,0 c -3.427,-0.819 -5.978,-3.894 -5.978,-7.571 0,-3.678 2.551,-6.753 5.978,-7.573 -0.933,1.601 -1.553,4.391 -1.553,7.573 0,3.181 0.62,5.971 1.553,7.571"
             style="fill:#fcee21;fill-opacity:1;fill-rule:nonzero;stroke:none"
             id="path8941" />
        </g>
        <g
           id="g8943"
           transform="translate(354.8037,439.2134)">
          <path
             d="m 0,0 c 0.933,-1.6 1.553,-4.39 1.553,-7.571 0,-3.182 -0.62,-5.972 -1.553,-7.573 3.426,0.82 5.978,3.895 5.978,7.573 C 5.978,-3.894 3.426,-0.819 0,0"
             style="fill:#fcee21;fill-opacity:1;fill-rule:nonzero;stroke:none"
             id="path8945" />
        </g>
        <g
           id="g8947"
           transform="translate(351.1699,439.2134)">
          <path
             d="m 0,0 c -3.427,-0.819 -5.977,-3.894 -5.977,-7.571 0,-3.678 2.55,-6.753 5.977,-7.573 -0.932,1.601 -1.552,4.391 -1.552,7.573 0,3.181 0.62,5.971 1.552,7.571"
             style="fill:#fcee21;fill-opacity:1;fill-rule:nonzero;stroke:none"
             id="path8949" />
        </g>
        <g
           id="g8951"
           transform="translate(272.8276,228.4961)">
          <path
             d="m 0,0 v -55.169 c 0,-6.109 4.998,-11.107 11.105,-11.107 h 17.714 c 6.109,0 11.107,4.998 11.107,11.107 V 0 c 0,6.109 -4.998,11.106 -11.107,11.106 H 23.928 L 20.135,-49.79 16.342,11.106 H 11.105 C 4.998,11.106 0,6.109 0,0"
             style="fill:#ed1c24;fill-opacity:1;fill-rule:nonzero;stroke:none"
             id="path8953" />
        </g>
        <g
           id="g8955"
           transform="translate(486.9521,341.3135)">
          <path
             d="M 0,0 C -0.341,2.766 -0.8,5.509 -1.372,8.224 1.654,7.202 7.342,5.349 11.169,4.498 -14.173,56.689 -41.896,66.484 -41.896,66.484 l 0.278,-0.553 c -0.093,0.03 -0.184,0.066 -0.278,0.094 0.276,-0.363 0.52,-0.732 0.782,-1.097 l 9.654,-19.255 c 2.281,-5.767 4.157,-11.627 5.789,-17.457 3.539,-12.866 5.655,-25.782 5.899,-38.593 0.106,-6.402 -0.183,-12.791 -1.093,-19.126 -0.883,-6.34 -2.285,-12.632 -4.127,-18.933 -1.808,-6.325 -4.339,-12.52 -7.124,-18.825 -2.727,-6.378 -6.254,-12.446 -9.565,-19.15 13.03,7.017 23.981,18.101 31.518,31.571 2.643,4.79 4.836,9.873 6.553,15.131 C 0.965,-45.761 6.602,-54.606 11.169,-66.098 13.77,-42.692 5.095,-14.195 0,0 m -250.058,56.547 -34.183,-26.357 29.474,7.116 z M -374.165,-48.478 c -2.051,6.237 -3.66,12.48 -4.754,18.786 -1.122,6.301 -1.623,12.676 -1.729,19.079 -0.184,12.812 1.502,25.792 4.611,38.768 1.581,6.476 3.432,13.004 5.828,19.414 l 0.887,2.424 c 0.041,0.104 0.084,0.205 0.126,0.308 l 8.116,16.183 c 0,0 -0.073,-0.025 -0.21,-0.079 -2.393,-0.852 -4.649,-2.141 -6.754,-3.632 -9.828,-6.294 -28.535,-22.098 -46.101,-58.275 5.43,1.207 14.611,4.437 14.611,4.437 0,0 -18.232,-42.45 -14.611,-75.033 5.364,13.497 12.204,23.348 17.064,29.301 2.053,-6.518 4.853,-12.776 8.31,-18.575 7.979,-13.211 19.294,-23.923 32.55,-30.504 -3.531,6.591 -7.26,12.539 -10.197,18.822 -2.994,6.208 -5.729,12.317 -7.747,18.576 m 226.214,41.858 c -2.123,-2.948 -5.047,-5.482 -8.774,-7.843 -1.841,-1.221 -3.921,-2.266 -6.105,-3.406 -2.19,-1.182 -4.544,-2.167 -7.02,-3.578 1.267,-0.596 2.573,-1.128 3.902,-1.459 0.666,-0.189 1.337,-0.331 2.016,-0.487 0.679,-0.124 1.361,-0.201 2.054,-0.299 2.758,-0.294 5.606,-0.231 8.456,0.357 2.843,0.582 5.686,1.648 8.318,3.261 2.629,1.605 5.032,3.773 6.916,6.363 1.884,2.584 3.249,5.569 3.926,8.651 0.678,3.083 0.724,6.239 0.177,9.211 -0.553,2.972 -1.654,5.773 -3.277,8.18 -1.628,2.394 -3.681,4.458 -6.214,5.742 0.376,-2.811 0.608,-5.274 0.594,-7.636 0.002,-2.345 -0.182,-4.539 -0.6,-6.587 -0.781,-4.101 -2.225,-7.54 -4.369,-10.47 M -262.535,4.151 c -0.546,-2.972 -0.502,-6.128 0.178,-9.211 0.677,-3.082 2.04,-6.067 3.927,-8.651 1.882,-2.59 4.285,-4.758 6.915,-6.363 2.631,-1.613 5.475,-2.679 8.317,-3.261 2.85,-0.588 5.7,-0.651 8.456,-0.357 0.694,0.098 1.376,0.175 2.054,0.299 0.68,0.156 1.351,0.298 2.018,0.487 1.329,0.331 2.634,0.863 3.903,1.459 -2.478,1.411 -4.832,2.396 -7.022,3.578 -2.184,1.14 -4.264,2.185 -6.106,3.406 -3.726,2.361 -6.65,4.895 -8.773,7.843 -2.145,2.93 -3.588,6.369 -4.369,10.47 -0.417,2.048 -0.601,4.242 -0.6,6.587 -0.016,2.362 0.219,4.825 0.593,7.636 -2.533,-1.284 -4.585,-3.348 -6.212,-5.742 -1.623,-2.407 -2.725,-5.208 -3.279,-8.18 m 222.006,102.885 c -5.046,4.239 -11.001,7.308 -17.26,8.973 -3.135,0.816 -6.348,1.308 -9.586,1.326 -1.62,0.001 -3.244,-0.094 -4.859,-0.391 -0.806,-0.142 -1.611,-0.341 -2.401,-0.627 -0.394,-0.159 -0.783,-0.322 -1.159,-0.567 -0.184,-0.127 -0.374,-0.257 -0.517,-0.477 -0.07,-0.101 -0.114,-0.251 -0.091,-0.372 0.02,-0.132 0.103,-0.209 0.172,-0.278 -0.053,0.217 0.055,0.343 0.196,0.367 0.129,0.044 0.304,0.052 0.473,0.047 0.341,-0.01 0.708,-0.085 1.061,-0.165 0.713,-0.154 1.42,-0.374 2.117,-0.599 1.398,-0.469 2.767,-0.997 4.106,-1.572 2.681,-1.135 5.266,-2.39 7.756,-3.747 4.985,-2.696 9.594,-5.78 13.784,-9.308 4.188,-3.53 7.962,-7.502 11.37,-11.999 3.45,-4.488 6.395,-9.508 9.651,-14.968 0.713,6.325 -0.495,12.783 -3.071,18.755 -2.605,5.961 -6.688,11.381 -11.742,15.602 m -22.526,21.186 c -2.028,-0.874 -3.943,-1.981 -5.664,-3.347 -1.708,-1.379 -3.27,-2.97 -4.371,-4.932 4.409,0.431 8.142,0.785 11.831,0.931 3.659,0.136 7.126,0.132 10.437,-0.213 3.316,-0.347 6.431,-0.995 9.586,-2.185 3.18,-1.183 6.283,-3.074 9.99,-5.571 -0.127,4.447 -2.336,8.766 -5.838,11.925 -3.498,3.188 -8.183,4.988 -12.758,5.433 -4.601,0.455 -9.159,-0.303 -13.213,-2.041 M -362.56,87.647 c 3.41,4.497 7.182,8.469 11.372,11.999 4.188,3.528 8.797,6.612 13.782,9.308 2.489,1.357 5.075,2.612 7.757,3.747 1.339,0.575 2.708,1.103 4.105,1.572 0.699,0.225 1.405,0.445 2.118,0.599 0.352,0.08 0.719,0.155 1.062,0.165 0.169,0.005 0.343,-0.003 0.472,-0.047 0.14,-0.024 0.248,-0.15 0.196,-0.367 0.068,0.069 0.152,0.146 0.172,0.278 0.023,0.121 -0.021,0.271 -0.091,0.372 -0.143,0.22 -0.333,0.35 -0.518,0.477 -0.375,0.245 -0.764,0.408 -1.159,0.567 -0.789,0.286 -1.595,0.485 -2.401,0.627 -1.615,0.297 -3.238,0.392 -4.857,0.391 -3.24,-0.018 -6.452,-0.51 -9.588,-1.326 -6.258,-1.665 -12.214,-4.734 -17.258,-8.973 -5.056,-4.221 -9.138,-9.641 -11.743,-15.602 -2.577,-5.972 -3.784,-12.43 -3.071,-18.755 3.256,5.46 6.2,10.48 9.65,14.968 m 15.456,33.014 c 3.311,0.345 6.777,0.349 10.436,0.213 3.69,-0.146 7.422,-0.5 11.831,-0.931 -1.099,1.962 -2.663,3.553 -4.37,4.932 -1.722,1.366 -3.637,2.473 -5.664,3.347 -4.055,1.738 -8.612,2.496 -13.213,2.041 -4.576,-0.445 -9.261,-2.245 -12.758,-5.433 -3.501,-3.159 -5.712,-7.478 -5.838,-11.925 3.706,2.497 6.809,4.388 9.991,5.571 3.153,1.19 6.269,1.838 9.585,2.185 m 250.198,-241.987 c -1.602,-0.739 -3.212,-1.453 -4.844,-2.111 -7.271,-2.956 -14.816,-5.067 -22.426,-6.363 l -6.17,-18.343 1.458,0.167 1.482,0.173 1.453,0.252 2.914,0.504 5.86,1.013 1.255,0.296 z m -33.851,-43.451 -0.459,-0.154 -3.037,-1.013 -1.522,-0.506 -0.805,-0.227 -3.3,-9.81 z m -139.528,20.537 c 0.098,-0.018 0.193,-0.042 0.291,-0.06 l 3.274,-0.528 2.035,-0.33 -4.81,14.973 c -5.333,0.749 -10.64,1.916 -15.857,3.493 z m 2.915,25.151 c 0.784,-0.342 1.568,-0.685 2.36,-1.017 2.196,-0.907 4.394,-1.885 6.67,-2.635 l 3.405,-1.237 1.714,-0.629 1.737,-0.543 c 1.161,-0.369 2.331,-0.713 3.501,-1.104 1.172,-0.366 2.344,-0.812 3.537,-1.098 0.196,-0.053 0.394,-0.11 0.59,-0.165 v 12.595 c -11.998,2.633 -22.365,6.71 -31.301,11.645 z m 25.118,60.304 c 0,0.881 -0.715,1.596 -1.597,1.596 -0.881,0 -1.596,-0.715 -1.596,-1.596 0,-0.882 0.715,-1.597 1.596,-1.597 0.882,0 1.597,0.715 1.597,1.597 m 28.128,-109.201 c 0,-6.109 4.997,-11.108 11.105,-11.108 h 17.713 c 6.11,0 11.108,4.999 11.108,11.108 v 55.169 c 0,6.109 -4.998,11.106 -11.108,11.106 h -4.89 l -3.793,-60.896 -3.793,60.896 h -5.237 c -6.108,0 -11.105,-4.997 -11.105,-11.106 z m 34.132,91.425 c -0.118,-1.091 2.711,-10.839 3.83,-12.716 0.98,1.935 4.161,10.121 4.302,12.025 0.122,1.65 -1.907,7.28 -3.639,7.974 -0.25,0.099 -0.587,0.148 -1.01,-0.356 -1.351,-2.272 -3.383,-5.97 -3.483,-6.927 m 4.657,-120.031 c -0.015,-3.04 1.781,-7.959 3.598,-9.81 0.424,-0.432 1.828,-0.151 6.103,3.676 0.309,0.277 0.525,0.466 0.605,0.522 0.752,0.928 7.238,26.176 2.784,34.263 -6.278,-16.8 -12.489,-27.619 -13.09,-28.651 m -24.895,3.706 c -1.071,4.466 -1.64,5.887 -1.937,6.234 -0.771,-0.929 -2.5,-5.868 -2.51,-6.42 0.077,-0.416 1.247,-3.665 2.23,-4.042 0.129,-0.049 0.23,-0.031 0.344,0.056 v 0.001 c 0.501,0.389 2.163,2.928 2.063,3.405 -0.032,0.108 -0.099,0.383 -0.19,0.766 m 5.42,-0.674 c 0.007,0.022 0.017,0.054 0.029,0.086 -0.031,0.129 -0.071,0.287 -0.115,0.471 -1.071,4.469 -1.639,5.891 -1.936,6.236 -0.772,-0.928 -2.5,-5.867 -2.51,-6.419 0.074,-0.416 1.239,-3.661 2.229,-4.042 0.125,-0.048 0.228,-0.033 0.345,0.056 v 0.002 c 0.422,0.328 1.655,2.166 1.977,3.028 -0.053,0.232 -0.069,0.435 -0.019,0.582 m 3.073,6.685 c -0.313,-0.333 -0.94,-1.728 -2.198,-6.138 -0.109,-0.382 -0.188,-0.656 -0.224,-0.765 -0.121,-0.471 1.431,-3.076 1.917,-3.489 0.109,-0.095 0.211,-0.116 0.341,-0.072 0.999,0.336 2.305,3.532 2.403,3.974 0.011,0.522 -1.508,5.529 -2.239,6.49 m 5.334,-0.113 c -0.313,-0.333 -0.942,-1.73 -2.201,-6.152 -0.108,-0.375 -0.185,-0.643 -0.221,-0.753 -0.121,-0.47 1.432,-3.076 1.916,-3.487 0.112,-0.095 0.211,-0.116 0.342,-0.071 0.999,0.335 2.305,3.53 2.404,3.972 0.009,0.522 -1.509,5.53 -2.24,6.491 m 6.818,1.707 c -0.955,-1.502 -3.486,-9.377 -3.417,-10.27 0.063,-0.783 1.63,-3.843 2.679,-5.725 0.333,-0.42 0.609,-0.389 0.813,-0.313 1.427,0.524 3.212,5.065 3.151,6.411 -0.071,1.554 -2.472,8.297 -3.226,9.897 m -30.089,-15.666 c 0.201,-0.085 0.475,-0.127 0.826,0.277 1.126,1.837 2.825,4.827 2.919,5.607 0.108,0.886 -2.087,8.865 -2.976,10.406 -0.822,-1.566 -3.508,-8.201 -3.643,-9.751 -0.119,-1.344 1.47,-5.955 2.874,-6.539 m -16.197,27.514 c -4.336,-7.119 1.48,-28.324 2.618,-29.524 0.038,-0.014 0.251,-0.16 0.553,-0.374 3.39,-2.392 5.427,-3.283 6.067,-2.662 1.943,1.906 3.567,6.377 3.572,8.785 -0.655,0.94 -6.709,9.798 -12.81,23.775 m 67.273,102.982 c -2.803,-1.503 -6.709,-6.605 -7.803,-10.175 0.326,-1.427 3.639,-16.369 4.841,-38.344 8.177,7.84 9.822,39.785 9.253,41.193 -0.054,0.058 -0.189,0.285 -0.489,0.786 -3.603,6.042 -5.142,6.888 -5.802,6.54 m -28.595,-7.944 c 0.041,-0.132 0.126,-0.466 0.244,-0.931 1.391,-5.465 2.112,-7.199 2.483,-7.619 0.932,1.153 2.968,7.242 2.97,7.919 -0.101,0.508 -1.59,4.471 -2.805,4.92 -0.159,0.059 -0.281,0.036 -0.422,-0.076 -0.609,-0.49 -2.603,-3.629 -2.47,-4.213 m -4.077,4.259 c -0.509,-0.407 -1.985,-2.669 -2.376,-3.74 0.072,-0.287 0.094,-0.538 0.036,-0.722 -0.009,-0.026 -0.02,-0.066 -0.033,-0.109 0.041,-0.155 0.09,-0.347 0.147,-0.571 1.392,-5.466 2.114,-7.2 2.483,-7.619 0.933,1.152 2.968,7.242 2.971,7.919 -0.1,0.508 -1.59,4.473 -2.805,4.919 -0.055,0.021 -0.108,0.032 -0.158,0.032 -0.091,0 -0.172,-0.035 -0.263,-0.108 z m -8.854,-4.794 c -0.002,-0.639 1.946,-6.756 2.86,-7.923 0.377,0.416 1.123,2.138 2.593,7.578 0.126,0.465 0.216,0.799 0.259,0.933 0.14,0.579 -1.809,3.751 -2.409,4.247 -0.092,0.076 -0.175,0.113 -0.269,0.113 -0.048,0 -0.098,-0.011 -0.152,-0.03 -1.219,-0.428 -2.768,-4.373 -2.882,-4.918 m -3.511,4.994 c -0.049,0 -0.098,-0.01 -0.153,-0.029 -1.224,-0.43 -2.769,-4.373 -2.881,-4.915 -0.003,-0.642 1.945,-6.759 2.86,-7.926 0.377,0.414 1.124,2.14 2.595,7.588 0.123,0.46 0.215,0.792 0.257,0.925 0.139,0.579 -1.81,3.749 -2.41,4.246 -0.091,0.074 -0.175,0.111 -0.268,0.111 m -12.637,-2.994 c 0.113,-1.909 3.174,-10.139 4.126,-12.087 1.146,1.859 4.117,11.565 4.014,12.659 -0.088,0.959 -2.065,4.686 -3.382,6.977 -0.274,0.334 -0.512,0.431 -0.716,0.431 -0.107,0 -0.203,-0.028 -0.288,-0.06 -1.743,-0.669 -3.853,-6.268 -3.754,-7.92 m -10.905,-41.564 c 1.521,21.954 5.051,36.847 5.396,38.268 -1.042,3.585 -4.872,8.743 -7.654,10.287 -0.083,0.045 -0.179,0.072 -0.292,0.072 -0.787,0 -2.379,-1.29 -5.606,-6.529 -0.304,-0.496 -0.444,-0.719 -0.528,-0.824 -0.56,-1.354 0.618,-33.318 8.684,-41.274 m -16.838,-48.011 0.159,-0.324 v 0.285 z m 0.159,19.023 v 16.995 c -5.811,-0.707 -11.724,-0.866 -17.652,-0.504 l 7.695,-15.62 c 2.249,-0.236 4.496,-0.46 6.731,-0.703 z m 102.518,-1.811 9.288,18.443 -3.169,-0.285 c -1.249,-0.123 -2.517,-0.121 -3.775,-0.15 l -3.762,-0.058 c -0.183,10e-4 -0.365,-0.005 -0.549,-0.009 v -18.06 z m -1.967,36.099 v -10.712 c 0.926,0.332 1.849,0.669 2.77,0.986 1.108,0.425 2.239,0.721 3.328,1.185 l 3.267,1.321 c 3.112,1.241 6.16,2.567 9.145,3.971 l 6.936,13.774 c -7.432,-4.216 -15.873,-7.844 -25.446,-10.525 M -254.4,-72.906 c 0,1.158 -0.938,2.096 -2.096,2.096 -1.158,0 -2.096,-0.938 -2.096,-2.096 0,-1.157 0.938,-2.095 2.096,-2.095 1.158,0 2.096,0.938 2.096,2.095 m -20.163,6.905 c 0,1.324 -1.073,2.397 -2.396,2.397 -1.324,0 -2.397,-1.073 -2.397,-2.397 0,-1.323 1.073,-2.396 2.397,-2.396 1.323,0 2.396,1.073 2.396,2.396 m -15.884,15.077 c 0,1.002 -0.812,1.813 -1.812,1.813 -1.002,0 -1.814,-0.811 -1.814,-1.813 0,-1.001 0.812,-1.812 1.814,-1.812 1,0 1.812,0.811 1.812,1.812 m 28.508,-0.539 c 0,1.235 -1.003,2.235 -2.238,2.235 -1.235,0 -2.236,-1 -2.236,-2.235 0,-1.235 1.001,-2.236 2.236,-2.236 1.235,0 2.238,1.001 2.238,2.236 m -15.849,14.457 c 0,1.329 -1.077,2.406 -2.407,2.406 -1.329,0 -2.407,-1.077 -2.407,-2.406 0,-1.329 1.078,-2.406 2.407,-2.406 1.33,0 2.407,1.077 2.407,2.406 m -9.107,19.655 c 0,1.193 -0.966,2.159 -2.159,2.159 -1.192,0 -2.158,-0.966 -2.158,-2.159 0,-1.191 0.966,-2.158 2.158,-2.158 1.193,0 2.159,0.967 2.159,2.158 m -2.834,21.48 c 0,-0.781 0.633,-1.415 1.415,-1.415 0.782,0 1.416,0.634 1.416,1.415 0,0.782 -0.634,1.416 -1.416,1.416 -0.782,0 -1.415,-0.634 -1.415,-1.416 m 67.366,-47.256 c 0,0.733 -0.594,1.327 -1.328,1.327 -0.732,0 -1.327,-0.594 -1.327,-1.327 0,-0.732 0.595,-1.327 1.327,-1.327 0.734,0 1.328,0.595 1.328,1.327 m -19.998,6.026 c 0,1.185 -0.961,2.145 -2.145,2.145 -1.184,0 -2.143,-0.96 -2.143,-2.145 0,-1.183 0.959,-2.143 2.143,-2.143 1.184,0 2.145,0.96 2.145,2.143 m -17.762,11.894 c 0,1.331 -1.079,2.409 -2.41,2.409 -1.329,0 -2.408,-1.078 -2.408,-2.409 0,-1.33 1.079,-2.409 2.408,-2.409 1.331,0 2.41,1.079 2.41,2.409 m -8.992,39.932 c 0,0.81 -0.657,1.468 -1.469,1.468 -0.81,0 -1.469,-0.658 -1.469,-1.468 0,-0.813 0.659,-1.47 1.469,-1.47 0.812,0 1.469,0.657 1.469,1.47 m -1.662,-21.231 c 0,1.219 -0.988,2.206 -2.206,2.206 -1.22,0 -2.207,-0.987 -2.207,-2.206 0,-1.219 0.987,-2.207 2.207,-2.207 1.218,0 2.206,0.988 2.206,2.207 m 98.842,-36.621 c 0,-0.732 0.593,-1.327 1.327,-1.327 0.732,0 1.326,0.595 1.326,1.327 0,0.733 -0.594,1.327 -1.326,1.327 -0.734,0 -1.327,-0.594 -1.327,-1.327 m 19.999,6.026 c 0,-1.183 0.958,-2.143 2.143,-2.143 1.184,0 2.145,0.96 2.145,2.143 0,1.185 -0.961,2.145 -2.145,2.145 -1.185,0 -2.143,-0.96 -2.143,-2.145 m 17.76,11.894 c 0,-1.33 1.079,-2.409 2.409,-2.409 1.331,0 2.409,1.079 2.409,2.409 0,1.331 -1.078,2.409 -2.409,2.409 -1.33,0 -2.409,-1.078 -2.409,-2.409 m 8.992,39.932 c 0,-0.813 0.658,-1.47 1.468,-1.47 0.813,0 1.47,0.657 1.47,1.47 0,0.81 -0.657,1.468 -1.47,1.468 -0.81,0 -1.468,-0.658 -1.468,-1.468 m 3.869,-19.025 c -1.219,0 -2.206,-0.987 -2.206,-2.206 0,-1.219 0.987,-2.207 2.206,-2.207 1.219,0 2.207,0.988 2.207,2.207 0,1.219 -0.988,2.206 -2.207,2.206 m -11.043,-47.163 c 0,-1.235 1.001,-2.236 2.236,-2.236 1.234,0 2.235,1.001 2.235,2.236 0,1.235 -1.001,2.235 -2.235,2.235 -1.235,0 -2.236,-1 -2.236,-2.235 m 15.848,14.457 c 0,-1.329 1.077,-2.406 2.407,-2.406 1.328,0 2.406,1.077 2.406,2.406 0,1.329 -1.078,2.406 -2.406,2.406 -1.33,0 -2.407,-1.077 -2.407,-2.406 m 9.107,19.655 c 0,-1.191 0.967,-2.158 2.159,-2.158 1.19,0 2.157,0.967 2.157,2.158 0,1.193 -0.967,2.159 -2.157,2.159 -1.192,0 -2.159,-0.966 -2.159,-2.159 m 0.002,21.48 c 0,-0.781 0.634,-1.415 1.417,-1.415 0.78,0 1.415,0.634 1.415,1.415 0,0.782 -0.635,1.416 -1.415,1.416 -0.783,0 -1.417,-0.634 -1.417,-1.416 m -32.497,-77.035 c 0,-1.157 0.938,-2.095 2.096,-2.095 1.156,0 2.096,0.938 2.096,2.095 0,1.158 -0.94,2.096 -2.096,2.096 -1.158,0 -2.096,-0.938 -2.096,-2.096 m 20.163,6.905 c 0,-1.323 1.072,-2.396 2.396,-2.396 1.324,0 2.396,1.073 2.396,2.396 0,1.324 -1.072,2.397 -2.396,2.397 -1.324,0 -2.396,-1.073 -2.396,-2.397 m 15.883,15.077 c 0,-1.001 0.812,-1.812 1.813,-1.812 1.001,0 1.814,0.811 1.814,1.812 0,1.002 -0.813,1.813 -1.814,1.813 -1.001,0 -1.813,-0.811 -1.813,-1.813 m 72.666,23.491 c -1.502,-15.391 -6.158,-30.653 -13.621,-44.499 -1.174,-20.612 -5.738,-49.261 -20.518,-72.001 5.066,17.498 3.059,32.583 -1.446,43.162 -2.576,-2.459 -5.255,-4.806 -8.048,-7.006 -6.202,-4.891 -12.909,-9.11 -19.947,-12.548 l -12.685,-23.374 c 0.593,0.163 1.18,0.336 1.758,0.532 l 5.67,1.754 c 1.847,0.674 3.668,1.417 5.521,2.127 1.889,0.661 3.599,1.602 5.402,2.436 0.883,0.442 1.816,0.826 2.665,1.321 l 2.564,1.49 1.29,0.75 c 0.438,0.243 0.864,0.5 1.258,0.794 l 2.442,1.703 c 0.406,0.288 0.827,0.564 1.224,0.864 l 1.144,0.951 c 0.756,0.643 1.553,1.261 2.292,1.934 l 2.138,2.109 c 0.706,0.717 1.316,1.508 1.987,2.27 1.231,1.584 2.457,3.233 3.257,5.126 -0.395,-2.031 -1.265,-3.941 -2.178,-5.818 -0.509,-0.906 -0.972,-1.861 -1.537,-2.744 l -1.74,-2.634 c -0.615,-0.855 -1.29,-1.659 -1.94,-2.496 l -0.99,-1.249 c -0.346,-0.4 -0.714,-0.773 -1.073,-1.163 l -2.178,-2.322 c -0.358,-0.401 -0.744,-0.762 -1.139,-1.11 l -1.179,-1.067 -2.372,-2.143 c -0.795,-0.716 -1.663,-1.313 -2.497,-1.977 -1.694,-1.273 -3.35,-2.676 -5.153,-3.777 -1.78,-1.157 -3.557,-2.358 -5.373,-3.489 l -5.579,-3.116 c -1.853,-1.095 -3.781,-1.962 -5.706,-2.877 l -5.801,-2.727 -2.647,-1.06 -10.726,-19.762 0.431,0.071 0.95,0.222 1.912,0.446 c 5.116,1.186 10.172,2.838 14.922,5.246 1.18,0.608 2.333,1.273 3.512,1.932 l 1.684,1.094 0.85,0.555 0.806,0.605 c 2.181,1.598 4.25,3.408 5.92,5.632 -0.919,-2.64 -2.403,-5.12 -4.087,-7.425 l -0.628,-0.88 -0.679,-0.833 -1.374,-1.678 c -0.976,-1.05 -1.96,-2.126 -2.991,-3.152 -1.063,-0.975 -2.124,-1.988 -3.227,-2.949 l -3.427,-2.742 c -2.372,-1.679 -4.78,-3.431 -7.328,-4.87 l -1.902,-1.134 -0.958,-0.567 -0.975,-0.504 -3.938,-2.016 c -1.314,-0.712 -2.669,-1.24 -4.016,-1.843 l -4.078,-1.768 c -0.152,-0.057 -0.305,-0.112 -0.457,-0.169 l -8.867,-16.338 c 0.061,-0.5 0.098,-1.004 0.106,-1.517 0.535,-10e-4 1.071,0.014 1.618,0.02 0.673,-0.002 1.342,0.042 2.012,0.108 2.704,0.195 5.464,0.672 8.214,1.424 2.754,0.751 5.511,1.736 8.161,3.107 -1.474,-2.613 -3.328,-5.088 -5.396,-7.428 -2.072,-2.347 -4.403,-4.552 -6.992,-6.555 -0.64,-0.516 -1.298,-1.016 -1.984,-1.475 -0.683,-0.467 -1.366,-0.96 -2.075,-1.409 -1.433,-0.858 -2.889,-1.778 -4.443,-2.512 -2.086,-1.097 -4.301,-1.985 -6.595,-2.774 -1.966,-1.044 -4.202,-1.642 -6.58,-1.642 h -0.528 l 1.37,-3 0.82,-1.79 0.919,-1.712 c 2.374,-4.672 5.274,-9.033 8.728,-13.012 0.832,-1.049 1.803,-1.903 2.727,-2.871 0.458,-0.495 0.977,-0.887 1.475,-1.331 0.508,-0.421 0.995,-0.903 1.535,-1.282 l 1.617,-1.193 1.708,-1.076 c 1.175,-0.647 2.387,-1.311 3.716,-1.69 -1.396,-0.069 -2.792,0.17 -4.191,0.419 -0.686,0.162 -1.385,0.315 -2.078,0.495 l -2.047,0.647 c -0.698,0.207 -1.335,0.515 -2.012,0.772 -0.662,0.28 -1.362,0.519 -1.992,0.857 -1.273,0.656 -2.64,1.241 -3.853,2.015 -5.025,2.913 -9.73,6.535 -13.922,10.603 l -1.618,1.509 -1.509,1.585 -3.027,3.207 c -0.982,1.091 -1.889,2.223 -2.84,3.344 -0.93,1.13 -1.917,2.247 -2.804,3.407 -0.023,0.032 -0.048,0.066 -0.071,0.097 h -4.653 c 1.025,-2.519 2.236,-4.991 3.747,-7.311 0.488,-0.709 0.982,-1.436 1.506,-2.148 0.55,-0.668 1.079,-1.407 1.689,-2.04 1.19,-1.329 2.497,-2.584 4.059,-3.582 -1.862,0.14 -3.736,0.654 -5.546,1.31 -0.933,0.304 -1.793,0.722 -2.708,1.102 -0.881,0.416 -1.751,0.868 -2.636,1.325 -3.476,1.897 -6.685,4.313 -9.705,6.973 -1.595,1.376 -3.088,2.846 -4.527,4.371 h -0.277 c -1.44,-1.525 -2.933,-2.995 -4.526,-4.371 -3.022,-2.66 -6.23,-5.076 -9.707,-6.973 -0.885,-0.457 -1.754,-0.909 -2.635,-1.325 -0.915,-0.38 -1.776,-0.798 -2.708,-1.102 -1.811,-0.656 -3.684,-1.17 -5.547,-1.31 1.562,0.998 2.869,2.253 4.059,3.582 0.61,0.633 1.14,1.372 1.689,2.04 0.523,0.712 1.018,1.439 1.506,2.148 1.512,2.32 2.722,4.792 3.748,7.311 h -4.653 c -0.023,-0.031 -0.048,-0.065 -0.071,-0.097 -0.887,-1.16 -1.876,-2.277 -2.804,-3.407 -0.952,-1.121 -1.858,-2.253 -2.84,-3.344 l -3.028,-3.207 -1.509,-1.585 -1.618,-1.509 c -4.191,-4.068 -8.896,-7.69 -13.921,-10.603 -1.213,-0.774 -2.582,-1.359 -3.853,-2.015 -0.63,-0.338 -1.331,-0.577 -1.992,-0.857 -0.677,-0.257 -1.314,-0.565 -2.011,-0.772 l -2.047,-0.647 c -0.695,-0.18 -1.394,-0.333 -2.079,-0.495 -1.4,-0.249 -2.795,-0.488 -4.192,-0.419 1.329,0.379 2.541,1.043 3.716,1.69 l 1.708,1.076 1.617,1.193 c 0.541,0.379 1.028,0.861 1.536,1.282 0.497,0.444 1.015,0.836 1.473,1.331 0.926,0.968 1.897,1.822 2.729,2.871 3.455,3.979 6.353,8.34 8.728,13.012 l 0.919,1.712 0.82,1.79 1.62,3.548 c 0.004,0.012 0.009,0.024 0.014,0.034 -2.116,0.626 -4.019,1.74 -5.592,3.207 -1.337,0.535 -2.646,1.109 -3.902,1.77 -1.554,0.735 -3.009,1.655 -4.444,2.511 -0.709,0.451 -1.391,0.944 -2.074,1.41 -0.686,0.459 -1.343,0.959 -1.984,1.476 -2.589,2.003 -4.92,4.208 -6.992,6.556 -2.069,2.339 -3.922,4.813 -5.395,7.426 2.65,-1.371 5.405,-2.355 8.159,-3.107 2.75,-0.751 5.511,-1.229 8.216,-1.425 0.669,-0.064 1.338,-0.108 2.011,-0.107 0.092,0 0.182,-0.003 0.273,-0.005 l -5.502,17.131 c -1.264,0.424 -2.525,0.822 -3.766,1.354 -2.971,1.215 -5.938,2.303 -8.8,3.74 -1.434,0.696 -2.878,1.328 -4.283,2.073 l -4.17,2.285 c -5.476,3.173 -10.681,6.734 -15.372,10.835 -1.149,1.061 -2.34,2.036 -3.414,3.167 l -1.633,1.642 c -0.537,0.554 -1.04,1.146 -1.557,1.713 -2.034,2.301 -3.943,4.72 -5.448,7.344 2.174,-2.089 4.614,-3.816 7.113,-5.394 0.634,-0.386 1.245,-0.79 1.888,-1.155 l 1.935,-1.066 c 1.26,-0.737 2.631,-1.316 3.93,-1.965 5.306,-2.457 10.84,-4.247 16.408,-5.613 l 4.197,-0.925 c 0.853,-0.176 1.718,-0.312 2.582,-0.444 l -12.718,19.784 -2.102,0.764 c -1.101,0.42 -2.181,0.918 -3.27,1.374 l -6.495,2.788 c -2.144,0.971 -4.238,2.084 -6.347,3.118 -8.375,4.282 -16.44,9.164 -23.741,15.002 -1.782,1.525 -3.591,2.984 -5.314,4.545 -1.674,1.629 -3.416,3.147 -4.962,4.889 -3.178,3.353 -6.139,6.954 -8.389,10.939 2.947,-3.484 6.443,-6.389 10.086,-9.017 1.772,-1.371 3.729,-2.512 5.584,-3.743 1.911,-1.166 3.89,-2.222 5.814,-3.329 7.888,-4.177 16.259,-7.281 24.733,-9.763 1.272,-0.349 2.533,-0.713 3.794,-1.068 l -11.356,17.663 c -1.389,0.547 -2.772,1.116 -4.141,1.722 -12.066,5.292 -23.162,12.915 -32.707,22.159 -4.755,-10.612 -7.008,-26.029 -1.807,-43.989 -15.218,23.413 -19.605,53.09 -20.614,73.811 -7.928,14.772 -12.858,31.042 -14.409,47.471 -0.982,10.393 -0.686,20.847 1.004,30.992 0.5,2.532 0.987,5.048 1.527,7.539 0.673,2.481 1.326,4.944 2.052,7.376 0.823,2.418 1.702,4.805 2.583,7.165 1.034,2.33 2.061,4.636 3.192,6.885 0.073,-2.548 0.041,-5.038 0.017,-7.504 0.077,-2.487 0.152,-4.946 0.173,-7.373 0.181,-2.45 0.279,-4.867 0.413,-7.271 0.253,-2.411 0.428,-4.798 0.658,-7.171 1.042,-9.494 2.734,-18.746 5.148,-27.705 4.817,-17.902 12.291,-34.707 22.494,-49.565 10.185,-14.866 23.078,-27.698 38.37,-37.78 4.959,-3.277 10.178,-6.241 15.623,-8.924 l -4.762,14.827 c -38.382,23.195 -48.441,61.914 -48.441,61.914 0,0 35.753,-49.489 83.403,-54.331 v 16.216 c -0.658,-0.11 -1.317,-0.217 -1.978,-0.325 -2.04,-0.222 -4.099,-0.465 -6.177,-0.48 -8.283,-0.259 -16.923,1.33 -24.75,5.23 -3.903,1.943 -7.575,4.464 -10.77,7.516 -3.199,3.041 -5.891,6.639 -7.849,10.567 -1.965,3.919 -3.227,8.163 -3.552,12.435 -0.354,4.253 0.196,8.55 1.813,12.322 0.534,-2 1.03,-3.879 1.688,-5.68 0.666,-1.795 1.356,-3.516 2.206,-5.143 1.619,-3.269 3.584,-6.215 5.816,-8.848 1.083,-1.338 2.309,-2.545 3.501,-3.747 l 1.901,-1.692 c 0.675,-0.52 1.287,-1.095 1.978,-1.589 2.689,-2.049 5.581,-3.819 8.647,-5.341 6.137,-3.024 12.923,-5.133 20.142,-6.573 2.417,-0.528 4.88,-0.955 7.384,-1.345 v 0.638 c 0,2.362 0.527,4.603 1.448,6.63 -3.548,0.128 -7.118,0.558 -10.653,1.34 -11.812,2.539 -23.027,9.413 -30.721,19.216 -7.758,9.719 -11.935,22.367 -10.972,34.767 0.21,3.092 0.863,6.15 1.725,9.102 l 0.795,2.175 c 0.285,0.716 0.492,1.45 0.87,2.13 0.716,1.371 1.292,2.776 2.176,4.036 3.227,5.16 7.766,9.375 12.987,11.762 -7.267,-8.908 -10.056,-19.295 -9.098,-29.28 l 0.166,-1.862 c 0.064,-0.62 0.206,-1.237 0.302,-1.851 0.12,-0.613 0.179,-1.228 0.307,-1.839 l 0.434,-1.817 c 0.571,-2.418 1.401,-4.769 2.304,-7.071 1.862,-4.593 4.392,-8.903 7.473,-12.775 3.076,-3.878 6.681,-7.336 10.717,-10.293 l 3.106,-2.126 c 1.09,-0.626 2.169,-1.284 3.254,-1.945 l 3.413,-1.717 c 1.149,-0.561 2.352,-1.016 3.536,-1.538 4.19,-1.683 8.63,-2.936 13.228,-3.918 2.645,1.894 5.87,3.022 9.353,3.022 l 11.417,6.892 c -1.686,-0.087 -3.377,-0.124 -5.07,-0.095 -1.37,0.032 -2.75,0.011 -4.121,0.137 -1.375,0.098 -2.747,0.233 -4.128,0.351 -1.382,0.127 -2.744,0.395 -4.121,0.601 l -2.065,0.336 c -0.685,0.144 -1.364,0.311 -2.046,0.471 -5.472,1.2 -10.892,3.072 -16.026,5.767 -5.129,2.682 -9.995,6.177 -14.108,10.593 -0.537,0.526 -1.01,1.119 -1.49,1.707 l -1.435,1.765 c -0.898,1.227 -1.745,2.508 -2.561,3.796 -1.506,2.674 -2.878,5.454 -3.736,8.434 -0.988,2.932 -1.403,6.035 -1.622,9.094 -0.064,3.076 0.088,6.152 0.789,9.105 0.592,2.968 1.675,5.789 2.942,8.444 1.369,2.613 2.91,5.098 4.797,7.267 3.703,4.377 8.228,7.84 13.224,10.052 -3.388,-4.282 -6.25,-8.648 -8.246,-13.22 -0.234,-0.58 -0.533,-1.119 -0.738,-1.701 l -0.615,-1.734 -0.31,-0.855 -0.242,-0.876 -0.486,-1.731 c -0.149,-0.577 -0.218,-1.175 -0.35,-1.748 -0.106,-0.581 -0.274,-1.144 -0.311,-1.732 -0.126,-1.166 -0.293,-2.31 -0.298,-3.463 -0.012,-0.575 -0.073,-1.143 -0.051,-1.713 l 0.091,-1.702 c 0.02,-0.283 0.014,-0.564 0.046,-0.844 l 0.109,-0.839 0.206,-1.667 c 0.483,-2.188 0.977,-4.349 1.865,-6.392 0.776,-2.074 1.9,-4.013 3.059,-5.916 0.653,-0.914 1.284,-1.844 1.974,-2.736 l 1.096,-1.306 c 0.361,-0.437 0.71,-0.883 1.134,-1.277 3.129,-3.346 6.849,-6.28 10.929,-8.846 1.046,-0.604 2.054,-1.274 3.126,-1.86 1.085,-0.561 2.161,-1.152 3.244,-1.744 2.243,-1.033 4.475,-2.15 6.825,-3.067 0.582,-0.243 1.166,-0.477 1.745,-0.736 l 1.785,-0.662 c 1.197,-0.43 2.386,-0.901 3.599,-1.324 2.444,-0.778 4.884,-1.674 7.402,-2.362 2.493,-0.817 5.042,-1.457 7.606,-2.2 0.566,-0.173 1.137,-0.326 1.709,-0.477 l 12.116,7.312 c -5.83,-2.011 -20.302,3.158 -25.841,19.301 14.678,-10.119 29.917,4.237 10.708,11.301 -19.211,7.061 -22.036,1.13 -15.196,-8.476 -14.185,5.651 -20.531,22.035 -2.385,24.014 18.145,1.976 34.107,-4.804 34.107,-4.804 0,0 16.844,6.78 34.99,4.804 18.147,-1.979 11.8,-18.363 -2.385,-24.014 6.84,9.606 4.015,15.537 -15.196,8.476 -19.209,-7.064 -3.97,-21.42 10.71,-11.301 -5.625,-16.386 -14.982,-20.765 -20.633,-18.504 -2.949,1.179 -4.857,12.166 -6.01,22.404 0.485,-9.721 0.39,-20.197 -1.981,-22.665 l 3.556,2.147 15.56,-8.846 c 1.759,0.486 3.505,0.965 5.223,1.528 2.517,0.688 4.958,1.584 7.401,2.362 1.213,0.423 2.402,0.894 3.6,1.324 l 1.784,0.662 c 0.58,0.259 1.164,0.493 1.745,0.736 2.352,0.917 4.582,2.034 6.826,3.067 1.082,0.592 2.157,1.183 3.244,1.744 1.072,0.586 2.078,1.256 3.125,1.86 4.08,2.566 7.8,5.5 10.929,8.846 0.424,0.394 0.774,0.84 1.135,1.277 l 1.096,1.306 c 0.691,0.892 1.32,1.822 1.973,2.736 1.16,1.903 2.283,3.842 3.06,5.916 0.887,2.043 1.381,4.204 1.865,6.392 l 0.206,1.667 0.109,0.839 c 0.032,0.28 0.025,0.561 0.046,0.844 l 0.09,1.702 c 0.023,0.57 -0.038,1.138 -0.051,1.713 -0.005,1.153 -0.172,2.297 -0.298,3.463 -0.037,0.588 -0.206,1.151 -0.311,1.732 -0.131,0.573 -0.2,1.171 -0.349,1.748 l -0.486,1.731 -0.243,0.876 -0.309,0.855 -0.615,1.734 c -0.207,0.582 -0.504,1.121 -0.738,1.701 -1.996,4.572 -4.859,8.938 -8.246,13.22 4.996,-2.212 9.52,-5.675 13.223,-10.052 1.887,-2.169 3.428,-4.654 4.798,-7.267 1.267,-2.655 2.349,-5.476 2.94,-8.444 0.704,-2.953 0.855,-6.029 0.791,-9.105 -0.22,-3.059 -0.635,-6.162 -1.622,-9.094 -0.858,-2.98 -2.23,-5.76 -3.736,-8.434 -0.816,-1.288 -1.664,-2.569 -2.56,-3.796 l -1.436,-1.765 c -0.48,-0.588 -0.954,-1.181 -1.49,-1.707 -4.112,-4.416 -8.981,-7.911 -14.108,-10.593 -5.134,-2.695 -10.554,-4.567 -16.026,-5.767 -0.683,-0.16 -1.361,-0.327 -2.046,-0.471 l -2.064,-0.336 c -1.379,-0.206 -2.742,-0.474 -4.122,-0.601 -1.381,-0.118 -2.754,-0.253 -4.127,-0.351 -0.877,-0.081 -1.757,-0.1 -2.635,-0.112 l 11.998,-6.822 c 2.641,0 5.131,-0.653 7.337,-1.789 2.781,0.759 5.493,1.636 8.107,2.685 1.183,0.522 2.385,0.977 3.535,1.538 l 3.414,1.717 c 1.084,0.661 2.162,1.319 3.252,1.945 l 3.107,2.126 c 4.035,2.957 7.641,6.415 10.717,10.293 3.082,3.872 5.61,8.182 7.472,12.775 0.904,2.302 1.734,4.653 2.304,7.071 l 0.435,1.817 c 0.127,0.611 0.186,1.226 0.305,1.839 0.097,0.614 0.24,1.231 0.303,1.851 l 0.166,1.862 c 0.959,9.985 -1.831,20.372 -9.099,29.28 5.222,-2.387 9.76,-6.602 12.988,-11.762 0.886,-1.26 1.461,-2.665 2.176,-4.036 0.379,-0.68 0.585,-1.414 0.87,-2.13 l 0.797,-2.175 c 0.861,-2.952 1.513,-6.01 1.724,-9.102 0.962,-12.4 -3.215,-25.048 -10.972,-34.767 -7.695,-9.803 -18.91,-16.677 -30.722,-19.216 -1.27,-0.282 -2.546,-0.509 -3.823,-0.702 1.021,-2.006 1.627,-4.247 1.723,-6.618 0.093,0.02 0.188,0.037 0.279,0.057 7.219,1.44 14.006,3.549 20.142,6.573 3.065,1.522 5.959,3.292 8.649,5.341 0.689,0.494 1.302,1.069 1.976,1.589 l 1.902,1.692 c 1.191,1.202 2.417,2.409 3.499,3.747 2.234,2.633 4.198,5.579 5.817,8.848 0.85,1.627 1.54,3.348 2.206,5.143 0.659,1.801 1.155,3.68 1.689,5.68 1.616,-3.772 2.165,-8.069 1.812,-12.322 -0.194,-2.559 -0.732,-5.106 -1.547,-7.581 30.914,35.051 30.885,113.127 7.077,145.681 21.679,-13.684 40.389,-47.791 38.72,-83.472 -1.574,-33.63 -28.342,-54.986 -46.328,-63.701 -0.435,-1.141 -0.923,-2.265 -1.473,-3.362 -1.958,-3.928 -4.649,-7.526 -7.849,-10.567 -3.195,-3.052 -6.869,-5.573 -10.771,-7.516 -7.827,-3.9 -16.467,-5.489 -24.75,-5.23 -0.339,0.003 -0.678,0.02 -1.017,0.032 v -14.417 c 44.141,8.563 76.466,53.305 76.466,53.305 0,0 -9.894,-38.102 -47.514,-61.355 l -4.306,-12.796 c 3.17,1.659 6.263,3.411 9.271,5.261 15.321,9.439 28.384,21.537 38.71,35.76 10.345,14.212 17.925,30.473 22.717,47.944 l 1.661,6.615 c 0.472,2.227 0.911,4.471 1.422,6.723 0.378,2.263 0.724,4.541 1.136,6.832 l 0.885,6.934 0.642,7.032 0.406,7.134 c 0.023,2.384 0.113,4.801 0.181,7.239 -0.015,2.423 -0.04,4.869 0.042,7.372 1.123,-2.204 2.141,-4.464 3.166,-6.747 0.889,-2.309 1.752,-4.651 2.573,-7.02 0.747,-2.381 1.379,-4.799 2.059,-7.231 0.566,-2.442 1.027,-4.913 1.544,-7.397 1.699,-9.956 2.08,-20.252 1.058,-30.487 m -267.879,-24.482 c -32.546,34.25 -32.112,115 -7.419,147.971 -21.834,-13.437 -40.93,-47.329 -39.665,-83.027 1.224,-34.586 29.222,-56.511 47.084,-64.944 m 9.814,79.826 c -10.828,7.538 -11.703,30.52 -11.703,30.52 -13.509,-23.456 -19.01,-58.933 -1.907,-84.669 -0.247,2.097 -1.833,40.793 13.61,54.149 m -5.195,44.245 c -2.919,-7.92 3.471,-29.564 3.471,-29.564 0,0 5.544,0.044 40.534,20.251 -32.485,-10.497 -44.005,9.313 -44.005,9.313 m -2.673,54.519 c -28.409,-13.303 -58.532,-34.569 -55.179,-81.966 10.711,31.228 29.975,55.199 50.516,63.037 z m 42.063,-36.347 c 0,3.678 -2.549,6.753 -5.977,7.572 0.934,-1.6 1.554,-4.39 1.554,-7.572 0,-3.182 -0.62,-5.972 -1.554,-7.572 3.428,0.819 5.977,3.894 5.977,7.572 m -9.609,-7.572 c -0.933,1.6 -1.552,4.39 -1.552,7.572 0,3.182 0.619,5.972 1.552,7.572 -3.427,-0.819 -5.977,-3.894 -5.977,-7.572 0,-3.678 2.55,-6.753 5.977,-7.572 m 39.423,-4.625 c -0.663,-1.464 -1.617,-3.566 -2.777,-6.107 0.381,0.028 0.759,0.067 1.141,0.079 2.903,0.096 5.811,-0.31 8.486,-1.186 2.683,-0.864 5.143,-2.151 7.343,-3.698 2.206,-1.543 4.181,-3.318 5.97,-5.228 -2.178,1.451 -4.47,2.696 -6.832,3.636 -2.358,0.949 -4.803,1.555 -7.213,1.745 -2.412,0.202 -4.779,-0.038 -7.025,-0.65 -1.129,-0.307 -2.223,-0.7 -3.339,-1.163 l -1.77,-0.749 -0.079,-0.031 c -0.404,-0.878 -0.816,-1.775 -1.239,-2.689 2.779,0.304 5.617,0.179 8.285,-0.448 2.826,-0.655 5.447,-1.833 7.765,-3.331 2.324,-1.502 4.38,-3.289 6.214,-5.237 -2.224,1.49 -4.584,2.735 -7.019,3.615 -2.433,0.882 -4.953,1.362 -7.409,1.36 -2.461,0.005 -4.839,-0.459 -7.092,-1.292 -1.131,-0.416 -2.225,-0.91 -3.346,-1.482 l -0.728,-0.372 c -0.668,-1.432 -1.341,-2.874 -2.016,-4.312 2.462,0.317 4.971,0.112 7.237,-0.549 2.545,-0.75 4.797,-1.982 6.796,-3.431 2.007,-1.444 3.771,-3.115 5.39,-4.878 -2.008,1.303 -4.1,2.454 -6.263,3.293 -2.156,0.849 -4.383,1.381 -6.528,1.447 -2.15,0.052 -4.17,-0.378 -5.992,-1.228 -0.916,-0.421 -1.782,-0.951 -2.679,-1.552 -0.455,-0.306 -0.91,-0.631 -1.478,-0.998 -0.096,-0.063 -0.2,-0.128 -0.311,-0.193 -3.648,-7.637 -6.95,-14.29 -8.812,-17.441 5.716,23.301 9.376,42.499 11.03,51.749 -6.937,3.379 -12.828,-1.006 -28.028,1.186 -8.697,1.253 -8.355,2.613 -19.893,7.979 -8.405,-14.656 -22.082,-17.413 -27.338,-48.203 -6.148,26.819 15.816,65.038 18.718,66.188 -1.035,-4.981 7.671,-11.856 7.671,-11.856 0,0 1.982,2.6 12.94,8.809 24.682,13.984 34.256,-9.345 34.256,-9.345 l 11.944,15.983 -6.942,-24.508 2.049,-0.992 6.019,-1 c 0.11,0.057 0.215,0.12 0.325,0.174 1.225,0.725 2.587,1.13 3.958,1.602 1.392,0.33 2.825,0.636 4.276,0.71 2.903,0.199 5.847,-0.128 8.64,-0.904 0.552,-0.163 1.104,-0.337 1.65,-0.52 0.04,1.916 0.099,3.829 0.189,5.743 0.189,3.995 0.458,7.988 0.885,11.976 0.414,3.987 0.942,7.972 1.642,11.951 0.714,3.979 1.526,7.955 2.751,11.918 0.985,-4.03 1.552,-8.048 2.024,-12.063 0.457,-4.014 0.743,-8.024 0.913,-12.03 0.184,-4.006 0.21,-8.007 0.157,-12.006 -0.058,-3.999 -0.228,-7.994 -0.492,-11.986 l -0.515,-7.763 -5.987,4.643 c -0.257,0.198 -0.769,0.583 -1.2,0.87 -0.459,0.306 -0.928,0.604 -1.418,0.881 -0.969,0.563 -1.968,1.096 -2.999,1.56 -2.057,0.928 -4.214,1.625 -6.449,2.013 -0.557,0.075 -1.128,0.251 -1.692,0.248 -0.567,0.03 -1.144,0.079 -1.729,0.131 l -1.749,-0.053 c -0.096,0.002 -0.19,-0.013 -0.286,-0.015 m -87.836,60.285 c 7.968,4.58 32.928,19.661 32.928,19.661 0,0 -22.485,15.586 -43.777,10.655 14.804,-1.906 24.32,-10.509 19.948,-14.668 -4.373,-4.158 -12.267,0.99 -12.688,4.585 -1.414,-8.67 2.605,-11.843 2.605,-11.843 -5.993,-0.704 -13.111,8.18 -9.02,14.736 -12.835,-14.872 3.095,-26.367 10.004,-23.126 m 18.953,-30.338 c 7.545,8.176 24.96,15.081 24.96,15.081 0,0 19.177,2.251 31.933,-13.262 0,0 -1.475,22.913 -35.597,23.767 -17.133,-9.302 -21.296,-25.586 -21.296,-25.586 m 70.538,-2.291 12.058,11.136 c -15.61,24.291 -41.622,28.528 -52.375,21.798 32.642,1.401 40.317,-32.934 40.317,-32.934 m 12.177,44.217 1.496,-2.543 c 0.393,-0.43 0.777,-0.871 1.153,-1.322 0.275,0.116 0.55,0.235 0.825,0.355 0.64,0.281 1.308,0.583 1.969,0.891 l 0.103,0.163 c -0.279,1.211 -0.556,2.427 -0.86,3.647 -0.785,2.723 -1.646,5.481 -2.775,8.114 -0.242,-0.59 -0.468,-1.18 -0.664,-1.773 -0.528,-1.587 -0.89,-3.184 -1.078,-4.75 -0.118,-0.944 -0.172,-1.872 -0.169,-2.782 m 9.938,-6.895 3.335,-7.112 3.194,6.614 -3.793,1.468 z m 10.354,5.704 c 1.071,-0.536 2.227,-1.089 3.312,-1.579 0.104,-0.046 0.21,-0.092 0.314,-0.139 l 1.595,2.542 c 0.029,0.909 0.001,1.839 -0.09,2.785 -0.142,1.57 -0.456,3.178 -0.939,4.779 -0.18,0.598 -0.388,1.195 -0.612,1.79 -1.206,-2.598 -2.147,-5.329 -3.01,-8.03 -0.2,-0.718 -0.382,-1.431 -0.57,-2.148 m 1.118,-5.947 -0.028,-0.034 -0.118,-0.156 c -0.188,-0.276 -0.053,-0.101 0.018,0.004 z m -15.649,-0.957 -0.116,0.157 -0.028,0.035 0.126,-0.188 c 0.07,-0.106 0.203,-0.282 0.018,-0.004 m -138.354,3.683 c -2.652,7.333 -2.339,15.62 0.509,22.805 1.406,3.602 3.4,6.936 5.773,9.906 1.188,1.485 2.463,2.891 3.823,4.192 l 0.257,0.251 0.373,0.335 c 0.25,0.217 0.504,0.418 0.76,0.608 0.512,0.384 1.029,0.704 1.546,1.001 1.033,0.578 2.058,1.01 3.066,1.363 4.024,1.348 7.793,1.653 11.49,1.759 3.694,0.076 7.3,-0.166 10.866,-0.582 7.125,-0.857 14.082,-2.397 20.919,-4.624 3.418,-1.124 6.803,-2.428 10.146,-4.04 3.338,-1.634 6.654,-3.496 9.844,-6.274 1.578,-1.408 3.164,-3.067 4.455,-5.395 0.634,-1.169 1.18,-2.52 1.462,-4.046 0.156,-0.826 0.217,-1.699 0.192,-2.574 2.167,0.301 4.354,0.543 6.568,0.699 6.943,0.475 14.175,0.237 21.467,-1.62 0.473,-0.122 0.947,-0.271 1.42,-0.408 -0.421,0.979 -0.844,1.956 -1.277,2.934 l -1.635,3.265 -0.826,1.643 -0.919,1.571 c -2.371,4.282 -5.23,8.264 -8.58,11.858 -1.672,1.805 -3.521,3.44 -5.516,4.919 l -1.538,1.055 -1.617,0.945 c -1.107,0.564 -2.245,1.14 -3.479,1.45 2.558,-0.108 5.099,-0.877 7.508,-1.865 2.405,-1.015 4.747,-2.254 6.945,-3.711 4.407,-2.899 8.478,-6.405 12.066,-10.302 l 1.386,-1.444 1.287,-1.512 2.577,-3.051 c 1.614,-2.096 3.213,-4.225 4.765,-6.39 0.594,-0.906 1.202,-1.813 1.806,-2.722 1.021,0.827 2.074,1.579 3.155,2.243 0.847,0.523 1.712,1 2.588,1.422 -1.174,2.516 -2.533,4.976 -4.214,7.239 -0.494,0.631 -0.991,1.277 -1.512,1.904 -0.548,0.59 -1.071,1.241 -1.67,1.792 -1.165,1.16 -2.434,2.245 -3.906,3.079 1.681,-0.267 3.334,-0.862 4.919,-1.579 0.817,-0.335 1.564,-0.775 2.359,-1.175 0.762,-0.435 1.512,-0.9 2.273,-1.367 2.986,-1.931 5.694,-4.302 8.214,-6.871 1.951,-1.943 3.695,-4.051 5.373,-6.235 1.74,2.134 3.546,4.192 5.55,6.078 2.593,2.494 5.368,4.787 8.409,6.631 0.774,0.445 1.538,0.888 2.311,1.3 0.807,0.378 1.566,0.795 2.392,1.107 1.606,0.672 3.275,1.219 4.964,1.437 -1.497,-0.792 -2.796,-1.84 -3.993,-2.965 -0.615,-0.534 -1.158,-1.17 -1.723,-1.743 -0.539,-0.613 -1.054,-1.243 -1.565,-1.86 -1.746,-2.213 -3.174,-4.633 -4.42,-7.115 0.863,-0.448 1.714,-0.948 2.545,-1.495 1.061,-0.695 2.092,-1.477 3.088,-2.334 0.63,0.892 1.264,1.781 1.884,2.669 1.615,2.12 3.275,4.202 4.947,6.251 l 2.665,2.975 1.329,1.474 1.427,1.403 c 3.699,3.791 7.87,7.18 12.359,9.951 2.238,1.392 4.616,2.563 7.05,3.509 2.436,0.918 4.997,1.612 7.557,1.647 -1.243,-0.274 -2.395,-0.817 -3.52,-1.349 l -1.643,-0.897 -1.567,-1.011 c -2.037,-1.421 -3.932,-3.002 -5.656,-4.758 -3.452,-3.495 -6.424,-7.394 -8.919,-11.605 l -0.962,-1.545 -0.874,-1.618 -1.728,-3.216 c -0.282,-0.59 -0.556,-1.18 -0.832,-1.769 0.782,0.232 1.565,0.453 2.348,0.645 7.312,1.774 14.547,1.93 21.484,1.376 2.213,-0.181 4.396,-0.448 6.56,-0.773 -0.015,0.875 0.056,1.747 0.221,2.572 0.3,1.522 0.862,2.867 1.507,4.028 1.319,2.313 2.922,3.954 4.518,5.345 3.22,2.741 6.557,4.565 9.914,6.162 3.361,1.574 6.761,2.839 10.191,3.924 6.862,2.149 13.837,3.61 20.97,4.386 3.57,0.375 7.18,0.577 10.872,0.458 3.695,-0.147 7.462,-0.494 11.471,-1.888 1.002,-0.365 2.021,-0.809 3.049,-1.399 0.513,-0.301 1.026,-0.629 1.535,-1.017 0.253,-0.194 0.506,-0.398 0.752,-0.618 l 0.37,-0.338 0.253,-0.254 c 1.345,-1.317 2.604,-2.737 3.775,-4.236 2.339,-2.997 4.296,-6.352 5.66,-9.971 2.767,-7.216 2.985,-15.506 0.252,-22.809 -1.346,-3.648 -3.396,-7.041 -6.026,-9.914 -2.632,-2.869 -5.847,-5.219 -9.404,-6.794 -3.547,-1.595 -7.404,-2.419 -11.216,-2.501 -3.819,-0.093 -7.578,0.527 -11.112,1.624 l 1.77,6.001 c 5.989,-1.67 12.355,-1.46 17.633,1.172 5.299,2.547 9.337,7.381 11.161,12.952 1.866,5.578 1.502,11.78 -0.792,17.217 -1.138,2.728 -2.736,5.281 -4.67,7.594 -0.969,1.156 -2.013,2.26 -3.142,3.29 l -0.204,0.193 -0.107,0.087 c -0.073,0.061 -0.156,0.121 -0.243,0.183 -0.175,0.123 -0.388,0.245 -0.613,0.368 -0.462,0.242 -1.016,0.468 -1.624,0.664 -2.471,0.784 -5.588,1.063 -8.691,1.06 -3.128,-0.001 -6.338,-0.28 -9.535,-0.724 -6.4,-0.906 -12.793,-2.469 -18.878,-4.601 -3.037,-1.072 -6.003,-2.296 -8.774,-3.709 -2.753,-1.405 -5.372,-3.037 -7.285,-4.802 -0.949,-0.869 -1.678,-1.784 -2.011,-2.465 -0.164,-0.336 -0.237,-0.595 -0.249,-0.751 -0.013,-0.163 0.003,-0.228 0.042,-0.347 0.033,-0.115 0.119,-0.304 0.292,-0.575 0.181,-0.27 0.456,-0.609 0.82,-0.966 0.724,-0.721 1.778,-1.489 2.954,-2.197 l 28.817,-17.378 -33.232,6.73 h -0.002 c -6.095,1.153 -12.212,1.908 -18.187,1.969 -5.959,0.062 -11.808,-0.565 -16.987,-2.24 -5.176,-1.663 -9.591,-4.404 -12.572,-8.063 -0.756,-0.921 -1.4,-1.858 -2.044,-2.95 l -0.572,-0.976 c -0.147,-0.234 -0.228,-0.403 -0.657,-1.003 -0.052,-0.08 -0.327,-0.432 -0.523,-0.654 l -0.08,-0.092 -0.186,-0.196 c -0.138,-0.144 -0.282,-0.283 -0.43,-0.417 -0.288,-0.263 -0.606,-0.518 -1,-0.782 -1.563,-1.003 -2.674,-1.201 -3.382,-1.346 -0.435,-0.077 -0.663,-0.096 -0.992,-0.125 -0.263,-0.019 -0.506,-0.027 -0.732,-0.029 -0.417,0 -0.764,0.019 -1.062,0.046 -0.595,0.053 -1.029,0.124 -1.416,0.196 -0.774,0.145 -1.363,0.297 -1.913,0.447 -2.142,0.608 -3.774,1.236 -5.45,1.889 -0.925,0.368 -1.807,0.73 -2.695,1.108 -1.607,-0.701 -3.084,-1.303 -4.696,-1.921 -1.681,-0.634 -3.321,-1.243 -5.47,-1.826 -0.552,-0.145 -1.142,-0.291 -1.917,-0.426 -0.39,-0.068 -0.824,-0.135 -1.418,-0.181 -0.298,-0.022 -0.646,-0.038 -1.063,-0.033 -0.226,0.005 -0.47,0.015 -0.732,0.037 -0.328,0.033 -0.556,0.054 -0.991,0.137 -0.707,0.153 -1.814,0.363 -3.365,1.385 -0.393,0.267 -0.707,0.525 -0.992,0.791 -0.146,0.136 -0.289,0.278 -0.426,0.422 l -0.183,0.199 -0.079,0.094 c -0.194,0.224 -0.464,0.579 -0.516,0.659 -0.421,0.604 -0.501,0.774 -0.646,1.01 l -0.561,0.983 c -0.632,1.099 -1.264,2.043 -2.009,2.973 -2.941,3.692 -7.324,6.483 -12.48,8.204 -5.159,1.735 -11.001,2.427 -16.961,2.434 -5.975,0.007 -12.1,-0.679 -18.207,-1.763 h -0.002 l -33.308,-6.352 29.014,17.049 c 1.182,0.695 2.245,1.452 2.979,2.164 0.367,0.353 0.645,0.688 0.831,0.957 0.176,0.268 0.264,0.457 0.298,0.571 0.039,0.12 0.056,0.184 0.045,0.346 -0.01,0.157 -0.079,0.416 -0.24,0.754 -0.325,0.685 -1.044,1.609 -1.983,2.488 -1.892,1.787 -4.493,3.449 -7.23,4.885 -2.755,1.443 -5.706,2.702 -8.732,3.807 -6.06,2.202 -12.434,3.836 -18.823,4.815 -3.193,0.481 -6.4,0.796 -9.527,0.834 -3.103,0.037 -6.222,-0.205 -8.703,-0.962 -0.609,-0.19 -1.166,-0.409 -1.631,-0.645 -0.226,-0.121 -0.44,-0.242 -0.616,-0.363 -0.088,-0.061 -0.172,-0.12 -0.245,-0.179 l -0.109,-0.086 -0.206,-0.19 c -1.14,-1.018 -2.197,-2.11 -3.178,-3.255 -1.961,-2.29 -3.589,-4.824 -4.756,-7.54 -2.357,-5.411 -2.791,-11.608 -0.988,-17.207 1.76,-5.591 5.744,-10.47 11.013,-13.078 5.247,-2.692 11.609,-2.974 17.618,-1.373 l 1.702,-6.02 c -3.546,-1.056 -7.312,-1.634 -11.129,-1.497 -3.811,0.125 -7.659,0.992 -11.188,2.627 -3.538,1.616 -6.726,4.002 -9.326,6.901 -2.597,2.903 -4.609,6.318 -5.912,9.982 m 248.209,-87.47 c 0,0 -1.137,-22.971 -12.05,-30.386 15.291,-13.53 13.266,-52.205 12.995,-54.299 17.395,25.541 12.296,61.076 -0.945,84.685 m -6.352,13.798 c 0,0 -11.745,-19.678 -44.109,-8.814 34.758,-20.602 40.302,-20.709 40.302,-20.709 0,0 6.635,21.57 3.807,29.523 m 57.538,-28.103 c 3.889,47.357 -25.99,68.963 -54.247,82.588 l 4.448,-18.982 c 20.45,-8.07 39.441,-32.257 49.799,-63.606 m -81.564,46.511 c 0,3.678 -2.55,6.753 -5.976,7.572 0.933,-1.6 1.551,-4.39 1.551,-7.572 0,-3.182 -0.618,-5.972 -1.551,-7.572 3.426,0.819 5.976,3.894 5.976,7.572 m -9.61,-7.572 c -0.932,1.6 -1.552,4.39 -1.552,7.572 0,3.182 0.62,5.972 1.552,7.572 -3.427,-0.819 -5.977,-3.894 -5.977,-7.572 0,-3.678 2.55,-6.753 5.977,-7.572 m 53.59,-45.45 c -4.907,30.848 -18.552,33.761 -26.79,48.512 -11.598,-5.236 -11.272,-6.599 -19.983,-7.754 -15.223,-2.019 -21.064,2.432 -28.04,-0.867 1.551,-9.269 4.992,-28.507 10.443,-51.872 -1.826,3.173 -5.051,9.863 -8.614,17.54 -0.111,0.068 -0.214,0.133 -0.307,0.197 -0.565,0.373 -1.017,0.703 -1.468,1.015 -0.891,0.612 -1.75,1.151 -2.662,1.582 -1.811,0.87 -3.825,1.324 -5.977,1.296 -2.146,-0.041 -4.379,-0.548 -6.543,-1.373 -2.174,-0.815 -4.279,-1.941 -6.301,-3.222 1.639,1.745 3.421,3.396 5.446,4.817 2.014,1.425 4.28,2.633 6.834,3.354 2.273,0.635 4.783,0.812 7.244,0.466 -0.659,1.446 -1.318,2.896 -1.968,4.336 l -0.725,0.379 c -1.114,0.585 -2.202,1.091 -3.329,1.52 -2.242,0.859 -4.617,1.349 -7.077,1.373 -2.454,0.029 -4.98,-0.421 -7.423,-1.275 -2.446,-0.854 -4.819,-2.072 -7.061,-3.536 1.857,1.927 3.933,3.69 6.274,5.165 2.335,1.472 4.968,2.622 7.801,3.243 2.678,0.597 5.517,0.689 8.291,0.354 -0.41,0.919 -0.814,1.821 -1.208,2.703 l -0.079,0.032 -1.761,0.769 c -1.11,0.475 -2.2,0.881 -3.325,1.201 -2.24,0.637 -4.603,0.904 -7.017,0.73 -2.413,-0.163 -4.865,-0.741 -7.233,-1.662 -2.373,-0.913 -4.678,-2.134 -6.871,-3.559 1.809,1.89 3.803,3.642 6.027,5.16 2.217,1.522 4.692,2.781 7.384,3.613 2.685,0.847 5.597,1.219 8.5,1.091 0.381,-0.017 0.759,-0.061 1.139,-0.092 -1.131,2.553 -2.062,4.667 -2.707,6.138 -0.097,0.003 -0.19,0.019 -0.286,0.017 l -1.747,0.074 c -0.587,-0.046 -1.163,-0.088 -1.731,-0.11 -0.564,0.007 -1.138,-0.162 -1.696,-0.23 -2.24,-0.363 -4.403,-1.035 -6.472,-1.941 -1.035,-0.452 -2.04,-0.973 -3.017,-1.525 -0.492,-0.271 -0.964,-0.563 -1.425,-0.864 -0.436,-0.283 -0.952,-0.662 -1.211,-0.858 l -6.039,-4.573 -0.427,7.767 c -0.219,3.995 -0.345,7.992 -0.356,11.991 -0.007,4 0.064,8.001 0.293,12.004 0.216,4.004 0.548,8.009 1.051,12.018 0.516,4.01 1.13,8.022 2.159,12.04 1.182,-3.977 1.947,-7.962 2.616,-11.949 0.654,-3.986 1.138,-7.977 1.506,-11.969 0.381,-3.992 0.605,-7.988 0.749,-11.985 0.068,-1.913 0.106,-3.829 0.124,-5.744 0.548,0.177 1.102,0.344 1.656,0.501 2.802,0.744 5.749,1.038 8.648,0.806 1.451,-0.09 2.882,-0.414 4.27,-0.758 1.365,-0.489 2.722,-0.908 3.939,-1.648 0.11,-0.055 0.213,-0.119 0.322,-0.177 l 6.029,0.931 2.062,0.969 -6.663,24.585 11.763,-16.117 c 0,0 9.836,23.218 34.358,8.955 10.887,-6.333 12.84,-8.956 12.84,-8.956 0,0 8.782,6.777 7.804,11.77 2.889,-1.184 24.418,-39.65 17.967,-66.398 m 10.621,130.85 c -21.235,5.171 -43.896,-10.159 -43.896,-10.159 0,0 24.788,-15.363 32.703,-20.034 6.873,-3.319 22.932,7.995 10.267,23.011 4.016,-6.6 -3.202,-15.404 -9.187,-14.633 0,0 4.053,3.128 2.74,11.815 -0.462,-3.591 -8.415,-8.649 -12.74,-4.442 -4.325,4.208 5.288,12.703 20.113,14.442 m -87.358,-57.849 c 12.933,15.367 32.081,12.899 32.081,12.899 0,0 17.337,-7.102 24.789,-15.363 0,0 -3.978,16.33 -21.005,25.826 -34.129,-0.467 -35.865,-23.362 -35.865,-23.362 m 26.998,28.519 c -32.624,1.772 -40.688,-32.472 -40.688,-32.472 l -11.931,11.271 c 15.884,24.112 41.944,28.054 52.619,21.201"
             style="fill:#000000;fill-opacity:1;fill-rule:nonzero;stroke:none"
             id="path8957" />
        </g>
      </g>
    </g>
  </g>
</svg>
